<?xml version="1.0" encoding="UTF-8" standalone="no"?>
<svg xmlns="http://www.w3.org/2000/svg" viewBox="0 0 600 180" width="600" height="180">
  <defs>
    <linearGradient id="wingGradient1" x1="0%" y1="0%" x2="100%" y2="100%">
      <stop offset="0%" stop-color="#4dabf7" />
      <stop offset="50%" stop-color="#339af0" />
      <stop offset="100%" stop-color="#1864ab" />
    </linearGradient>
    <linearGradient id="wingGradient2" x1="100%" y1="0%" x2="0%" y2="100%">
      <stop offset="0%" stop-color="#4dabf7" />
      <stop offset="50%" stop-color="#339af0" />
      <stop offset="100%" stop-color="#1864ab" />
    </linearGradient>
    <filter id="shadow" x="-10%" y="-10%" width="120%" height="120%">
      <feDropShadow dx="2" dy="2" stdDeviation="3" flood-opacity="0.3" />
    </filter>
  </defs>
  
  <!-- Text AngeL -->
  <text x="300" y="110" 
        font-family="Arial, sans-serif" 
        font-size="80" 
        font-weight="bold" 
        text-anchor="middle" 
        fill="#1864ab" 
        filter="url(#shadow)">AngeL</text>
  
  <!-- Left Wing (attached to A) - positioned to overlap with A -->
  <path d="M160,95 
           C140,65 100,55 80,65
           C70,70 60,80 65,95
           C70,110 90,110 105,105
           C120,100 130,100 140,105
           C150,110 160,105 160,95 Z
           M160,95 
           C153,87 140,80 125,83
           C110,86 100,90 95,100
           M125,83
           C120,70 105,65 90,75
           M110,86
           C105,78 95,75 85,80" 
        fill="url(#wingGradient1)" 
        stroke="#1864ab" 
        stroke-width="1.5"
        filter="url(#shadow)" />
  
  <!-- Right Wing (attached to L) - positioned to overlap with L -->
  <path d="M440,95 
           C460,65 500,55 520,65
           C530,70 540,80 535,95
           C530,110 510,110 495,105
           C480,100 470,100 460,105
           C450,110 440,105 440,95 Z
           M440,95 
           C447,87 460,80 475,83
           C490,86 500,90 505,100
           M475,83
           C480,70 495,65 510,75
           M490,86
           C495,78 505,75 515,80" 
        fill="url(#wingGradient2)" 
        stroke="#1864ab" 
        stroke-width="1.5"
        filter="url(#shadow)" />
</svg>